<svg width="12" height="18" viewBox="0 0 12 18" fill="none" xmlns="http://www.w3.org/2000/svg">
<path d="M2.02533 0.376607L2.94761 0.081753C3.81331 -0.194244 4.73645 0.252323 5.10759 1.12489L5.84387 2.86315C6.16443 3.62 5.98701 4.51057 5.4033 5.06428L3.77989 6.6054C3.87931 7.52768 4.1896 8.43539 4.70902 9.32852C5.20254 10.1927 5.86446 10.949 6.65557 11.5528L8.60555 10.9014C9.34526 10.6554 10.1501 10.9391 10.6027 11.6051L11.6595 13.1565C12.1867 13.9313 12.0924 14.9993 11.4384 15.6559L10.7372 16.3596C10.0395 17.0599 9.04269 17.3144 8.12127 17.0264C5.94501 16.3476 3.94446 14.3325 2.11876 10.9811C0.290492 7.62454 -0.35493 4.77542 0.18335 2.43716C0.409634 1.45317 1.10991 0.66889 2.02533 0.376607Z" fill="url(#paint0_linear_22_82)"/>
<defs>
<linearGradient id="paint0_linear_22_82" x1="5.99976" y1="0.000488281" x2="5.99976" y2="17.143" gradientUnits="userSpaceOnUse">
<stop stop-color="#F9B233"/>
<stop offset="1" stop-color="#8B4100"/>
</linearGradient>
</defs>
</svg>
