<svg width="11" height="16" viewBox="0 0 11 16" fill="none" xmlns="http://www.w3.org/2000/svg">
<path d="M1.85678 0.344776L2.7022 0.0744927C3.49576 -0.178505 4.34197 0.230848 4.68218 1.0307L5.3571 2.62411C5.65096 3.31789 5.48831 4.13424 4.95325 4.64181L3.46512 6.05451C3.55626 6.89993 3.84069 7.73199 4.31683 8.5507C4.76922 9.34285 5.37598 10.0362 6.10117 10.5896L7.88865 9.99247C8.56671 9.76697 9.30449 10.027 9.71934 10.6375L10.6881 12.0597C11.1713 12.7699 11.0849 13.7489 10.4854 14.3508L9.8427 14.9958C9.20314 15.6378 8.28936 15.8711 7.44472 15.6071C5.44981 14.9848 3.61598 13.1377 1.94242 10.0655C0.266508 6.98871 -0.325129 4.37702 0.168295 2.23361C0.375721 1.33162 1.01764 0.612702 1.85678 0.344776Z" fill="black"/>
</svg>
