<svg width="25" height="25" viewBox="0 0 25 25" fill="none" xmlns="http://www.w3.org/2000/svg">
<path d="M21.875 0H3.12503C1.4014 0 3.05176e-05 1.40137 3.05176e-05 3.125V17.1875C3.05176e-05 18.9111 1.4014 20.3125 3.12503 20.3125H7.81253V24.4141C7.81253 24.7607 8.09573 25 8.39847 25C8.51566 25 8.63773 24.9658 8.74515 24.8828L14.8438 20.3125H21.875C23.5987 20.3125 25 18.9111 25 17.1875V3.125C25 1.40137 23.5987 0 21.875 0ZM22.6563 17.1875C22.6563 17.6172 22.3047 17.9688 21.875 17.9688H14.0625L13.4375 18.4375L10.1563 20.8984V17.9688H3.12503C2.69534 17.9688 2.34378 17.6172 2.34378 17.1875V3.125C2.34378 2.69531 2.69534 2.34375 3.12503 2.34375H21.875C22.3047 2.34375 22.6563 2.69531 22.6563 3.125V17.1875Z" fill="#F9B233"/>
</svg>
