<svg width="20" height="16" viewBox="0 0 20 16" fill="none" xmlns="http://www.w3.org/2000/svg">
<path d="M18 0H2.00003C0.90003 0 0.0100305 0.9 0.0100305 2L3.05176e-05 14C3.05176e-05 15.1 0.90003 16 2.00003 16H18C19.1 16 20 15.1 20 14V2C20 0.9 19.1 0 18 0ZM17.6 4.25L10.53 8.67C10.21 8.87 9.79003 8.87 9.47003 8.67L2.40003 4.25C2.29976 4.19371 2.21195 4.11766 2.14192 4.02645C2.07189 3.93525 2.02109 3.83078 1.99261 3.71937C1.96412 3.60796 1.95853 3.49194 1.97619 3.37831C1.99384 3.26468 2.03437 3.15581 2.09531 3.0583C2.15626 2.96079 2.23635 2.87666 2.33076 2.811C2.42516 2.74533 2.5319 2.69951 2.64453 2.6763C2.75715 2.65309 2.87331 2.65297 2.98599 2.67595C3.09866 2.69893 3.20549 2.74453 3.30003 2.81L10 7L16.7 2.81C16.7946 2.74453 16.9014 2.69893 17.0141 2.67595C17.1267 2.65297 17.2429 2.65309 17.3555 2.6763C17.4682 2.69951 17.5749 2.74533 17.6693 2.811C17.7637 2.87666 17.8438 2.96079 17.9047 3.0583C17.9657 3.15581 18.0062 3.26468 18.0239 3.37831C18.0415 3.49194 18.0359 3.60796 18.0075 3.71937C17.979 3.83078 17.9282 3.93525 17.8581 4.02645C17.7881 4.11766 17.7003 4.19371 17.6 4.25Z" fill="black"/>
</svg>
