<svg width="20" height="16" viewBox="0 0 20 16" fill="none" xmlns="http://www.w3.org/2000/svg">
<path d="M17.9998 0.000488281H1.99982C0.899817 0.000488281 0.00981688 0.900488 0.00981688 2.00049L-0.000183105 14.0005C-0.000183105 15.1005 0.899817 16.0005 1.99982 16.0005H17.9998C19.0998 16.0005 19.9998 15.1005 19.9998 14.0005V2.00049C19.9998 0.900488 19.0998 0.000488281 17.9998 0.000488281ZM17.5998 4.25049L10.5298 8.67049C10.2098 8.87049 9.78982 8.87049 9.46982 8.67049L2.39982 4.25049C2.29954 4.1942 2.21174 4.11815 2.14171 4.02694C2.07168 3.93573 2.02088 3.83127 1.99239 3.71986C1.96391 3.60845 1.95832 3.49242 1.97597 3.3788C1.99363 3.26517 2.03415 3.1563 2.0951 3.05879C2.15604 2.96128 2.23614 2.87714 2.33054 2.81148C2.42494 2.74582 2.53169 2.7 2.64431 2.67679C2.75694 2.65357 2.8731 2.65346 2.98577 2.67644C3.09844 2.69942 3.20528 2.74502 3.29982 2.81049L9.99982 7.00049L16.6998 2.81049C16.7944 2.74502 16.9012 2.69942 17.0139 2.67644C17.1265 2.65346 17.2427 2.65357 17.3553 2.67679C17.4679 2.7 17.5747 2.74582 17.6691 2.81148C17.7635 2.87714 17.8436 2.96128 17.9045 3.05879C17.9655 3.1563 18.006 3.26517 18.0237 3.3788C18.0413 3.49242 18.0357 3.60845 18.0072 3.71986C17.9788 3.83127 17.928 3.93573 17.8579 4.02694C17.7879 4.11815 17.7001 4.1942 17.5998 4.25049Z" fill="url(#paint0_linear_22_92)"/>
<defs>
<linearGradient id="paint0_linear_22_92" x1="9.99982" y1="0.000488281" x2="9.99982" y2="16.0005" gradientUnits="userSpaceOnUse">
<stop stop-color="#F9B233"/>
<stop offset="1" stop-color="#8B4100"/>
</linearGradient>
</defs>
</svg>
