<svg width="203" height="319" viewBox="0 0 203 319" fill="none" xmlns="http://www.w3.org/2000/svg">
<g clip-path="url(#clip0_78_1220)">
<path d="M131.353 190.101L131.012 190.785L94.1647 284.125L80.1765 319L54.2471 272.159L3.4118 288.57L54.2471 159.671L86.6589 172.321L129.306 189.075L131.353 190.101Z" fill="#57412D"/>
<g opacity="0.2">
<path opacity="0.2" d="M80.5177 301.905L58.3412 261.559L15.0118 275.92L59.0235 164.116L124.871 190.101L80.5177 301.905ZM59.3647 259.508L80.5177 297.802L122.482 191.126L59.7059 166.509L17.7412 273.184L59.3647 259.508Z" fill="white"/>
</g>
<path opacity="0.2" d="M131.012 190.785L94.1648 284.125C71.9883 233.181 70.2824 181.553 70.2824 181.553L86.6589 172.322L129.306 189.075L131.012 190.785Z" fill="black"/>
<path d="M122.482 319L148.412 272.159L199.588 288.57L148.753 159.671L71.6471 190.101L122.482 319Z" fill="#57412D"/>
<g opacity="0.2">
<path opacity="0.2" d="M78.1295 190.101L143.977 164.116L187.988 275.92L144.318 261.559L122.141 301.905L78.1295 190.101ZM185.259 273.184L142.953 166.167L80.1765 190.785L122.141 297.46L143.294 259.166L185.259 273.184Z" fill="white"/>
</g>
<path d="M101.329 7.18006L110.541 0L118.047 8.5477L128.282 3.41908L134.424 12.9925L145.341 9.57342L149.776 20.5145L161.035 19.1468L163.424 30.4298L174.682 31.1136L175.024 42.7385L186.282 45.1318L184.235 56.7567L194.812 61.2015L190.718 72.1425L200.271 78.6388L194.471 88.5541L203 96.7599L195.494 105.65L201.976 114.881L193.106 122.403L197.882 132.66L187.988 138.473L190.718 149.414L179.8 153.175L180.824 164.8L169.224 166.509L168.2 177.792L156.6 177.45L153.529 188.733L142.271 186.34L137.153 196.597L126.576 192.152L119.412 201.384L109.859 195.229L101.329 203.093L93.1412 195.229L83.2471 201.384L76.4235 192.152L65.8471 196.597L60.7294 186.34L49.4706 188.733L46.0588 177.45L34.4588 177.792L33.4353 166.509L22.1765 164.8L22.8588 153.175L11.9412 149.414L15.0118 138.473L4.77647 132.66L9.89412 122.403L0.682353 114.881L7.50588 105.65L0 96.7599L8.18824 88.5541L2.38824 78.6388L11.9412 72.1425L8.18824 61.2015L18.7647 56.7567L16.7176 45.1318L27.9765 42.7385V31.1136L39.5765 30.4298L41.6235 19.1468L53.2235 20.5145L57.3176 9.57342L68.2353 12.9925L74.3765 3.41908L84.6118 8.5477L92.4588 0L101.329 7.18006Z" fill="url(#paint0_linear_78_1220)"/>
<path opacity="0.2" d="M163.119 163.505C197.227 129.324 197.227 73.9043 163.119 39.7227C129.01 5.54105 73.7095 5.54104 39.601 39.7227C5.49246 73.9043 5.49246 129.324 39.601 163.505C73.7095 197.687 129.01 197.687 163.119 163.505Z" fill="black"/>
<path d="M60.7294 104.966L81.2 103.256C81.2 103.256 84.953 88.5542 82.5647 56.4148C82.5647 56.4148 89.7294 55.0472 93.1412 55.731C96.553 56.4148 100.306 91.9733 100.306 91.9733C100.306 91.9733 137.153 86.8446 139.2 88.2123C140.565 89.238 141.247 94.7085 141.588 98.4695C141.929 100.863 140.224 102.914 138.176 103.256L136.812 103.598L137.494 139.157C137.494 141.892 135.447 144.285 132.718 144.285L98.2588 147.02C94.8471 147.362 91.4353 146.679 88.3647 144.627L84.2706 142.234L63.1177 145.311L60.7294 104.966Z" fill="url(#paint1_linear_78_1220)"/>
<path opacity="0.7" d="M60.7294 104.966L81.2 103.256C81.2 103.256 84.953 88.5542 82.5647 56.4148C82.5647 56.4148 89.7294 55.0472 93.1412 55.731C96.553 56.4148 100.306 91.9733 100.306 91.9733C100.306 91.9733 137.153 86.8446 139.2 88.2123C140.565 89.238 141.247 94.7085 141.588 98.4695C141.929 100.863 140.224 102.914 138.176 103.256L136.812 103.598L137.494 139.157C137.494 141.892 135.447 144.285 132.718 144.285L98.2588 147.02C94.8471 147.362 91.4353 146.679 88.3647 144.627L84.2706 142.234L63.1177 145.311L60.7294 104.966Z" fill="white"/>
</g>
<defs>
<linearGradient id="paint0_linear_78_1220" x1="101.5" y1="0" x2="101.5" y2="203.093" gradientUnits="userSpaceOnUse">
<stop stop-color="#F9B233"/>
<stop offset="1" stop-color="#8B4100"/>
</linearGradient>
<linearGradient id="paint1_linear_78_1220" x1="101.181" y1="55.5396" x2="101.181" y2="147.104" gradientUnits="userSpaceOnUse">
<stop stop-color="#F9B233"/>
<stop offset="1" stop-color="#8B4100"/>
</linearGradient>
<clipPath id="clip0_78_1220">
<rect width="203" height="319" fill="white"/>
</clipPath>
</defs>
</svg>
