<svg width="30" height="30" viewBox="0 0 30 30" fill="none" xmlns="http://www.w3.org/2000/svg">
<path d="M14.996 9.99885C12.2417 9.99885 9.99396 12.2466 9.99396 15.001C9.99396 17.7553 12.2417 20.0031 14.996 20.0031C17.7503 20.0031 19.998 17.7553 19.998 15.001C19.998 12.2466 17.7503 9.99885 14.996 9.99885ZM29.9984 15.001C29.9984 12.9296 30.0171 10.8769 29.9008 8.80929C29.7845 6.40767 29.2366 4.27623 27.4805 2.52004C25.7205 0.760105 23.5929 0.215987 21.1913 0.0996586C19.12 -0.01667 17.0674 0.00209273 14.9998 0.00209273C12.9284 0.00209273 10.8758 -0.01667 8.80818 0.0996586C6.40661 0.215987 4.27521 0.763857 2.51905 2.52004C0.759145 4.27998 0.215037 6.40767 0.0987107 8.80929C-0.0176157 10.8807 0.00114667 12.9333 0.00114667 15.001C0.00114667 17.0686 -0.0176157 19.125 0.0987107 21.1927C0.215037 23.5943 0.762897 25.7257 2.51905 27.4819C4.27896 29.2418 6.40661 29.786 8.80818 29.9023C10.8795 30.0186 12.9321 29.9999 14.9998 29.9999C17.0711 29.9999 19.1237 30.0186 21.1913 29.9023C23.5929 29.786 25.7243 29.2381 27.4805 27.4819C29.2404 25.722 29.7845 23.5943 29.9008 21.1927C30.0209 19.125 29.9984 17.0724 29.9984 15.001ZM14.996 22.6974C10.7369 22.6974 7.29969 19.2601 7.29969 15.001C7.29969 10.7418 10.7369 7.30453 14.996 7.30453C19.255 7.30453 22.6923 10.7418 22.6923 15.001C22.6923 19.2601 19.255 22.6974 14.996 22.6974ZM23.0075 8.78678C22.0131 8.78678 21.2101 7.98374 21.2101 6.98931C21.2101 5.99489 22.0131 5.19185 23.0075 5.19185C24.0019 5.19185 24.8049 5.99489 24.8049 6.98931C24.8052 7.22544 24.759 7.45931 24.6687 7.67752C24.5785 7.89574 24.4461 8.094 24.2792 8.26097C24.1122 8.42794 23.9139 8.56033 23.6957 8.65056C23.4775 8.74078 23.2436 8.78707 23.0075 8.78678Z" fill="white"/>
</svg>
