<svg width="34" height="34" viewBox="0 0 34 34" fill="none" xmlns="http://www.w3.org/2000/svg">
<path d="M17 0C13.6378 0 10.351 0.997032 7.55534 2.86502C4.75971 4.733 2.58078 7.38804 1.29409 10.4944C0.00739635 13.6007 -0.32926 17.0189 0.326688 20.3165C0.982637 23.6142 2.60173 26.6433 4.97922 29.0208C7.35671 31.3983 10.3858 33.0174 13.6835 33.6733C16.9812 34.3293 20.3993 33.9926 23.5057 32.7059C26.612 31.4193 29.267 29.2403 31.135 26.4447C33.003 23.6491 34 20.3623 34 17C34 14.7675 33.5603 12.5569 32.706 10.4944C31.8517 8.43184 30.5994 6.55778 29.0208 4.97918C27.4423 3.40059 25.5682 2.14838 23.5057 1.29405C21.4431 0.439718 19.2325 0 17 0ZM27.2 16.66C27.2265 16.9538 27.1675 17.249 27.03 17.51L23.46 25.84C23.2739 26.2647 22.9625 26.6224 22.5676 26.8654C22.1727 27.1084 21.713 27.2252 21.25 27.2H11.9C10.9983 27.2 10.1335 26.8418 9.49587 26.2042C8.85825 25.5665 8.50004 24.7017 8.50004 23.8V15.3C8.48306 14.9842 8.53509 14.6686 8.65253 14.375C8.76997 14.0814 8.94998 13.8169 9.18004 13.6L17 5.1L18.173 6.273C18.4819 6.59458 18.6632 7.01756 18.683 7.463V7.803L17.697 13.6H25.5C25.9509 13.6 26.3833 13.7791 26.7021 14.0979C27.0209 14.4167 27.2 14.8491 27.2 15.3V16.66Z" fill="url(#paint0_linear_21_24)"/>
<defs>
<linearGradient id="paint0_linear_21_24" x1="17" y1="0" x2="17" y2="34" gradientUnits="userSpaceOnUse">
<stop stop-color="#F9B233"/>
<stop offset="1" stop-color="#8B4100"/>
</linearGradient>
</defs>
</svg>
