<svg width="13" height="12" viewBox="0 0 13 12" fill="none" xmlns="http://www.w3.org/2000/svg">
<path d="M0.728 5.988C0.728 7.56533 1.008 8.802 1.568 9.698C2.128 10.5847 3.06133 11.028 4.368 11.028C5.67467 11.028 6.608 10.58 7.168 9.684C7.728 8.788 8.008 7.556 8.008 5.988C8.008 4.42933 7.728 3.20667 7.168 2.32C6.608 1.424 5.67467 0.976 4.368 0.976C3.06133 0.976 2.128 1.41933 1.568 2.306C1.008 3.19267 0.728 4.42 0.728 5.988ZM6.412 5.988C6.412 7.12667 6.272 7.99933 5.992 8.606C5.712 9.21267 5.17067 9.516 4.368 9.516C3.556 9.516 3.01 9.21267 2.73 8.606C2.45 7.99933 2.31 7.12667 2.31 5.988C2.31 4.85867 2.45 3.99533 2.73 3.398C3.01 2.80067 3.556 2.502 4.368 2.502C5.17067 2.502 5.712 2.80533 5.992 3.412C6.272 4.00933 6.412 4.868 6.412 5.988ZM9.60466 2.614V1.116H12.7687V11H11.0887V2.614H9.60466Z" fill="white"/>
</svg>
