<svg width="31" height="28" viewBox="0 0 31 28" fill="none" xmlns="http://www.w3.org/2000/svg">
<path d="M30.7233 6.89267C30.5807 6.6859 30.3903 6.51689 30.1684 6.40012C29.9466 6.28335 29.6998 6.22231 29.4492 6.22223H8.26593L6.47728 1.91334C6.24275 1.34591 5.84562 0.861144 5.33624 0.520513C4.82685 0.179881 4.22816 -0.00127717 3.61605 6.77793e-06H0V3.11112H3.61605L10.9691 20.8211C11.0868 21.1045 11.2855 21.3465 11.5401 21.5167C11.7947 21.687 12.0938 21.7778 12.3997 21.7778H24.7993C25.4457 21.7778 26.0238 21.3749 26.2517 20.7698L30.9015 8.32534C30.9894 8.08986 31.0191 7.83651 30.9881 7.587C30.957 7.33748 30.8662 7.09924 30.7233 6.89267ZM23.7252 18.6667H13.4335L9.5586 9.33334H27.2126L23.7252 18.6667Z" fill="white"/>
<path d="M13.1747 28C14.4587 28 15.4996 26.9553 15.4996 25.6667C15.4996 24.378 14.4587 23.3333 13.1747 23.3333C11.8906 23.3333 10.8497 24.378 10.8497 25.6667C10.8497 26.9553 11.8906 28 13.1747 28Z" fill="white"/>
<path d="M24.0244 28C25.3084 28 26.3493 26.9553 26.3493 25.6667C26.3493 24.378 25.3084 23.3333 24.0244 23.3333C22.7403 23.3333 21.6994 24.378 21.6994 25.6667C21.6994 26.9553 22.7403 28 24.0244 28Z" fill="white"/>
</svg>
