<svg width="252" height="252" viewBox="0 0 252 252" fill="none" xmlns="http://www.w3.org/2000/svg">
<path d="M220.5 0H31.5C14.1258 0 0 14.1258 0 31.5V173.25C0 190.624 14.1258 204.75 31.5 204.75H78.75V246.094C78.75 249.588 81.6047 252 84.6562 252C85.8375 252 87.068 251.655 88.1508 250.819L149.625 204.75H220.5C237.874 204.75 252 190.624 252 173.25V31.5C252 14.1258 237.874 0 220.5 0ZM228.375 173.25C228.375 177.581 224.831 181.125 220.5 181.125H141.75L135.45 185.85L102.375 210.656V181.125H31.5C27.1688 181.125 23.625 177.581 23.625 173.25V31.5C23.625 27.1688 27.1688 23.625 31.5 23.625H220.5C224.831 23.625 228.375 27.1688 228.375 31.5V173.25Z" fill="white" fill-opacity="0.06"/>
</svg>
