<svg width="104" height="104" viewBox="0 0 104 104" fill="none" xmlns="http://www.w3.org/2000/svg">
<path d="M13 0H91C98.1703 0 104 5.82969 104 13V71.5C104 78.6703 98.1703 84.5 91 84.5H71.5V101.562C71.5 103.005 70.3219 104 69.0625 104C68.575 104 68.0672 103.858 67.6203 103.513L42.25 84.5H13C5.82972 84.5 3.05176e-05 78.6703 3.05176e-05 71.5V13C3.05176e-05 5.82969 5.82972 0 13 0ZM9.75003 71.5C9.75003 73.2875 11.2125 74.75 13 74.75H45.5L48.1 76.7L61.75 86.9375V74.75H91C92.7875 74.75 94.25 73.2875 94.25 71.5V13C94.25 11.2125 92.7875 9.75 91 9.75H13C11.2125 9.75 9.75003 11.2125 9.75003 13V71.5Z" fill="white" fill-opacity="0.06"/>
</svg>
