<svg width="20" height="20" viewBox="0 0 20 20" fill="none" xmlns="http://www.w3.org/2000/svg">
<path d="M19.9471 7.17901C19.8842 6.99388 19.7685 6.83121 19.6143 6.71107C19.46 6.59094 19.2739 6.51861 19.0791 6.50301L13.3781 6.05001L10.9111 0.589014C10.8325 0.413127 10.7047 0.263736 10.5431 0.158872C10.3815 0.0540081 10.193 -0.00184725 10.0004 -0.00195297C9.80774 -0.0020587 9.61919 0.0535897 9.45748 0.158276C9.29577 0.262963 9.16782 0.412213 9.08906 0.588015L6.62206 6.05001L0.921057 6.50301C0.729512 6.51819 0.546395 6.58822 0.393612 6.70475C0.240829 6.82127 0.12485 6.97934 0.0595499 7.16004C-0.00574986 7.34075 -0.0176054 7.53645 0.0254017 7.72372C0.0684089 7.91099 0.164458 8.0819 0.302057 8.21601L4.51506 12.323L3.02506 18.775C2.97981 18.9703 2.99431 19.1747 3.06668 19.3617C3.13904 19.5486 3.26592 19.7095 3.43086 19.8235C3.5958 19.9374 3.79118 19.9991 3.99164 20.0007C4.19211 20.0022 4.3884 19.9434 4.55506 19.832L10.0001 16.202L15.4451 19.832C15.6154 19.9451 15.8163 20.0033 16.0207 19.9988C16.2251 19.9944 16.4232 19.9274 16.5885 19.8069C16.7537 19.6865 16.878 19.5183 16.9448 19.3251C17.0116 19.1318 17.0176 18.9228 16.9621 18.726L15.1331 12.326L19.6691 8.24401C19.9661 7.97601 20.0751 7.55801 19.9471 7.17901Z" fill="url(#paint0_linear_77_1183)"/>
<defs>
<linearGradient id="paint0_linear_77_1183" x1="9.99997" y1="-0.00195313" x2="9.99997" y2="20.0007" gradientUnits="userSpaceOnUse">
<stop stop-color="#F9B233"/>
<stop offset="1" stop-color="#8B4100"/>
</linearGradient>
</defs>
</svg>
