<svg width="31" height="30" viewBox="0 0 31 30" fill="none" xmlns="http://www.w3.org/2000/svg">
<path d="M0.166718 15.001C0.166718 21.4047 4.18047 26.8722 9.82922 29.0235C9.69172 27.8522 9.54547 25.921 9.86047 24.566C10.1317 23.401 11.6117 17.1435 11.6117 17.1435C11.6117 17.1435 11.1655 16.2497 11.1655 14.926C11.1655 12.851 12.368 11.301 13.8667 11.301C15.1417 11.301 15.7567 12.2572 15.7567 13.4035C15.7567 14.6847 14.9405 16.5997 14.5192 18.376C14.168 19.8622 15.2655 21.0747 16.7305 21.0747C19.3842 21.0747 21.4255 18.276 21.4255 14.236C21.4255 10.6597 18.8555 8.16098 15.1867 8.16098C10.9392 8.16098 8.44547 11.3472 8.44547 14.641C8.44547 15.9247 8.93922 17.2997 9.55672 18.0485C9.60936 18.105 9.64656 18.1742 9.66473 18.2493C9.6829 18.3244 9.68143 18.4029 9.66047 18.4772C9.54672 18.9497 9.29422 19.9635 9.24547 20.171C9.17922 20.4435 9.02922 20.5022 8.74547 20.3697C6.88047 19.5022 5.71547 16.776 5.71547 14.586C5.71547 9.87473 9.13672 5.54973 15.5805 5.54973C20.7605 5.54973 24.7867 9.24098 24.7867 14.1735C24.7867 19.3197 21.543 23.4622 17.038 23.4622C15.5242 23.4622 14.103 22.6747 13.6155 21.746C13.6155 21.746 12.8667 24.5985 12.6855 25.296C12.333 26.651 11.3555 28.366 10.7492 29.3397C12.1467 29.7697 13.6292 30.001 15.1667 30.001C23.4505 30.001 30.1667 23.2847 30.1667 15.001C30.1667 6.71723 23.4505 0.000976562 15.1667 0.000976562C6.88297 0.000976562 0.166718 6.71723 0.166718 15.001Z" fill="white"/>
</svg>
